Coordinates
version=1
nRows=22
nColumns=24
inDegrees=yes

Units are S.I. units (second, meters, Newtons, ...)
Angles are in degrees.

endheader
time	pelvis_tilt	pelvis_list	pelvis_rotation	pelvis_tx	pelvis_ty	pelvis_tz	hip_flexion_r	hip_adduction_r	hip_rotation_r	knee_angle_r	ankle_angle_r	subtalar_angle_r	mtp_angle_r	hip_flexion_l	hip_adduction_l	hip_rotation_l	knee_angle_l	ankle_angle_l	subtalar_angle_l	mtp_angle_l	lumbar_extension	lumbar_bending	lumbar_rotation
      1.39566667	      0.46926264	      7.99734664	     -5.59001262	      0.27204602	      1.00976733	      0.28142783	     17.06596666	    -11.53927064	     -0.07807518	    -71.86317499	     -5.43831853	    -13.69276656	      5.68980511	      6.94067943	     12.83082694	      2.32069536	    -10.46239617	      1.50410725	    -18.29866547	     -3.14062873	    -12.62284797	     -3.08843169	     -1.24797156
      1.39983333	      0.48671568	      7.79287692	     -5.60015455	      0.27690182	      1.01075027	      0.28114048	     17.58101680	    -11.24114499	     -0.12336553	    -71.54617077	     -4.89472377	    -14.01582945	      5.52922188	      6.35688391	     12.66301134	      2.42737328	     -9.98784502	      1.48979355	    -18.30565185	     -3.20718694	    -12.65903044	     -2.78504683	     -1.49049006
      1.40400000	      0.46867512	      7.61608969	     -5.61321261	      0.28173744	      1.01160869	      0.28088048	     18.13758334	    -10.96235318	     -0.15409931	    -71.20258313	     -4.30759430	    -14.30373803	      5.48341143	      5.83133098	     12.51463867	      2.47211683	     -9.54217871	      1.49760717	    -18.24411180	     -3.22792690	    -12.64516126	     -2.55559421	     -1.58387744
      1.40816667	      0.52005950	      7.40295293	     -5.61684833	      0.28656671	      1.01255499	      0.28059241	     18.58267798	    -10.65242011	     -0.20978875	    -70.77200435	     -3.82833903	    -14.60168158	      5.32757905	      5.20737010	     12.34131684	      2.60383414	     -9.05869335	      1.48225765	    -18.27178901	     -3.29237397	    -12.73805915	     -2.21367652	     -1.92223883
      1.41233333	      0.49935073	      7.22259957	     -5.61380319	      0.29138025	      1.01333967	      0.28031677	     19.10710934	    -10.36679578	     -0.25677469	    -70.31848221	     -3.25600781	    -14.87392237	      5.26033331	      4.69463919	     12.18813913	      2.64395196	     -8.63134590	      1.46776971	    -18.22285774	     -3.32201711	    -12.73522439	     -1.96042184	     -2.04383190
      1.41650000	      0.50552768	      7.02823854	     -5.60898819	      0.29618958	      1.01413621	      0.28004527	     19.58013312	    -10.06636233	     -0.30955712	    -69.79919152	     -2.73837346	    -15.13433508	      5.17905142	      4.14274957	     12.02272070	      2.70881220	     -8.18558710	      1.46162434	    -18.18850258	     -3.35670732	    -12.76104078	     -1.67291902	     -2.23343787
      1.42066667	      0.53444048	      6.85041631	     -5.59617222	      0.30098478	      1.01490422	      0.27973811	     20.02006833	     -9.79171808	     -0.36973350	    -69.24319875	     -2.22660371	    -15.34035365	      2.19908526	      3.53854602	     11.88793915	      2.92092899	     -7.68031653	      1.41234253	    -18.38320238	     -4.52137980	    -12.82946110	     -1.39696930	     -2.52997735
      1.42483333	      0.51186809	      6.65360544	     -5.58340074	      0.30578254	      1.01557862	      0.27948611	     20.49216723	     -9.47832715	     -0.42002825	    -68.62046428	     -1.74833048	    -15.52889941	      2.18020149	      3.03636131	     11.70917712	      2.93632383	     -7.27195323	      1.45281379	    -18.21513282	     -4.52578821	    -12.82257951	     -1.10943224	     -2.74049306
      1.42900000	      0.49005075	      6.49583594	     -5.56592840	      0.31056474	      1.01616548	      0.27921684	     20.96442583	     -9.21523466	     -0.47366745	    -67.97556872	     -1.22938133	    -15.73182274	      2.16760039	      2.54501573	     11.57387971	      2.94694757	     -6.87315791	      1.46649914	    -18.11910630	     -4.53048034	    -12.81515890	     -0.86481847	     -2.87264724
      1.43316667	      0.52307909	      6.30936275	     -5.54598385	      0.31535516	      1.01681989	      0.27894619	     21.34423495	     -8.92705489	     -0.53706887	    -67.25153278	     -0.80984816	    -15.89868420	      2.12264135	      1.97376709	     11.41408087	      3.00820867	     -6.44034537	      1.51018799	    -18.04708974	     -4.54276080	    -12.87213363	     -0.57836852	     -3.17280255
      1.43733333	      0.49714821	      6.14798172	     -5.51983669	      0.32012610	      1.01733218	      0.27869616	     21.78316552	     -8.65352436	     -0.58805075	    -66.49759777	     -0.33094001	    -16.03439453	      2.09187059	      1.49241804	     11.27138647	      3.03046462	     -6.05201377	      1.51454547	    -17.97575643	     -4.55303131	    -12.86369530	     -0.35365961	     -3.33104605
      1.44150000	      0.49647074	      5.99758676	     -5.49481544	      0.32489433	      1.01781617	      0.27843867	     22.18320222	     -8.40018475	     -0.64075426	    -65.70059665	      0.09988499	    -16.13623852	      2.04325186	      0.97828643	     11.14374121	      3.07010566	     -5.64720897	      1.54244450	    -17.90892803	     -4.56729276	    -12.88215080	     -0.11656395	     -3.55896355
      1.44566667	      0.49067863	      5.85477249	     -5.46682763	      0.32966439	      1.01824705	      0.27819029	     22.57293846	     -8.15284513	     -0.68972921	    -64.85925548	      0.54272143	    -16.22686352	      2.00454525	      0.47987793	     11.02150544	      3.09000488	     -5.26102427	      1.55681470	    -17.83307767	     -4.57902848	    -12.89528082	      0.09753708	     -3.72583598
      1.44983333	      0.48679115	      5.73942678	     -5.44073758	      0.33442602	      1.01859628	      0.27793054	     22.95956626	     -7.94178600	     -0.73354513	    -63.98963705	      0.93772193	    -16.26690254	      1.93411676	     -0.02476295	     10.92934170	      3.13641536	     -4.85916208	      1.59810584	    -17.76623744	     -4.59812994	    -12.91141574	      0.30758279	     -3.98270305
      1.45400000	      0.49546622	      5.61132198	     -5.40995031	      0.33919144	      1.01894956	      0.27769416	     23.30318290	     -7.71313703	     -0.77902836	    -63.05807722	      1.33375472	    -16.30318133	      1.85749545	     -0.53533310	     10.82195293	      3.16586178	     -4.47482795	      1.62395483	    -17.68996750	     -4.61883975	    -12.94313250	      0.50798690	     -4.18401909
      1.45816667	      0.46445491	      5.49016438	     -5.37444187	      0.34395244	      1.01919881	      0.27747306	     23.67431444	     -7.48650452	     -0.82051126	    -62.08164341	      1.71803043	    -16.31843436	      1.80903404	     -0.98823763	     10.71545305	      3.17644503	     -4.11908411	      1.64527406	    -17.61687348	     -4.63217427	    -12.92385808	      0.68877759	     -4.32500685
      1.46233333	      0.47558166	      5.39406050	     -5.34406307	      0.34871750	      1.01943015	      0.27724272	     23.99368481	     -7.29781023	     -0.86028205	    -61.07538050	      2.06102509	    -16.30330284	      1.72964521	     -1.49849489	     10.64145402	      3.21572359	     -3.73326350	      1.69068774	    -17.54238466	     -4.65231284	    -12.95948995	      0.86291612	     -4.55594414
      1.46650000	      0.43049290	      5.30844085	     -5.30770017	      0.35347686	      1.01953205	      0.27703446	     24.35753792	     -7.10915854	     -0.88740987	    -60.02742009	      2.41450378	    -16.28298505	      1.68823298	     -1.92707476	     10.56946704	      3.23158211	     -3.38885867	      1.70962252	    -17.46759111	     -4.66337380	    -12.92301866	      1.00727403	     -4.68169744
      1.47066667	      0.44864247	      5.20681417	     -5.27115094	      0.35825587	      1.01970984	      0.27682477	     24.62229654	     -6.91668159	     -0.93118635	    -58.91521622	      2.71750628	    -16.24264342	      1.63625131	     -2.43659860	     10.48645064	      3.25677834	     -3.02306405	      1.74397682	    -17.39352797	     -4.67642478	    -12.96828123	      1.17549334	     -4.86814223
      1.47483333	      0.44485179	      5.14142724	     -5.23795080	      0.36301643	      1.01976293	      0.27663459	     24.91032830	     -6.75758930	     -0.95517283	    -57.78290065	      3.00834947	    -16.19427581	      1.58828990	     -2.91480582	     10.43871582	      3.29045472	     -2.66384018	      1.77791137	    -17.32297477	     -4.68806485	    -12.97885745	      1.29809362	     -5.04350674
      1.47900000	      0.43239093	      5.07530252	     -5.20363330	      0.36778395	      1.01976538	      0.27645229	     25.18679531	     -6.59783580	     -0.98002836	    -56.60151288	      3.26202342	    -16.14554109	      1.54103323	     -3.38254752	     10.38816059	      3.32581731	     -2.30878212	      1.81400427	    -17.25758535	     -4.69927670	    -12.98184797	      1.42522902	     -5.21440386
      1.48316667	      0.43005157	      5.01186407	     -5.17096194	      0.37256177	      1.01974281	      0.27628362	     25.43017334	     -6.44213570	     -1.00466188	    -55.37268895	      3.49092339	    -16.09558184	      1.49362555	     -3.86294819	     10.34042533	      3.36048455	     -1.95074395	      1.84714315	    -17.19117470	     -4.71028358	    -12.99721201	      1.54764269	     -5.38721986
